<svg width="505" height="99" viewBox="0 0 505 99" fill="none" xmlns="http://www.w3.org/2000/svg">
<g clip-path="url(#clip0_1903_3290)">
<path d="M46.8135 99V92.6886C46.8135 86.7312 49.8233 81.1784 54.8026 77.9317L61.2767 73.7038L38.885 30.7883L16.4933 73.7038L22.9775 77.9317C27.9568 81.1784 30.9565 86.7211 30.9666 92.6684V98.9899L0 78.7105L38.8951 0L77.7902 78.7105L46.8236 99H46.8135Z" fill="black"/>
<path d="M139.243 34.3369C138.981 34.8022 138.698 35.136 138.405 35.3383C138.112 35.5507 137.738 35.6518 137.304 35.6518C136.87 35.6518 136.345 35.4799 135.809 35.1461C135.274 34.8123 134.628 34.428 133.88 34.0133C133.133 33.5986 132.264 33.2142 131.264 32.8805C130.264 32.5467 129.083 32.3646 127.729 32.3646C126.497 32.3646 125.426 32.5163 124.507 32.8097C123.588 33.103 122.811 33.5177 122.184 34.0436C121.558 34.5696 121.094 35.2068 120.781 35.935C120.478 36.6734 120.316 37.4825 120.316 38.3625C120.316 39.4852 120.629 40.4157 121.255 41.1642C121.881 41.9126 122.71 42.5499 123.74 43.0758C124.77 43.6018 125.942 44.0771 127.265 44.4918C128.578 44.9065 129.931 45.3515 131.315 45.8269C132.698 46.3023 134.052 46.8485 135.365 47.4756C136.678 48.1027 137.86 48.8916 138.89 49.8525C139.92 50.8133 140.748 51.9765 141.374 53.3622C142.001 54.7478 142.314 56.4268 142.314 58.4093C142.314 60.5636 141.95 62.5764 141.213 64.4577C140.475 66.339 139.405 67.9775 137.991 69.3733C136.577 70.7691 134.85 71.8716 132.81 72.6706C130.769 73.4697 128.426 73.8742 125.8 73.8742C124.285 73.8742 122.79 73.7225 121.326 73.4292C119.851 73.1359 118.447 72.7111 117.094 72.1548C115.741 71.6086 114.478 70.9512 113.286 70.1723C112.105 69.4037 111.044 68.5439 110.125 67.6033L112.731 63.3552C112.953 63.0518 113.236 62.7888 113.589 62.5764C113.943 62.364 114.317 62.2629 114.71 62.2629C115.256 62.2629 115.852 62.4854 116.488 62.9405C117.124 63.3957 117.882 63.8913 118.761 64.4375C119.639 64.9837 120.669 65.4894 121.841 65.9344C123.013 66.3896 124.427 66.6121 126.073 66.6121C128.598 66.6121 130.547 66.0153 131.931 64.8117C133.315 63.6182 134.001 61.8987 134.001 59.6533C134.001 58.3992 133.688 57.3776 133.062 56.5887C132.436 55.7998 131.608 55.1322 130.577 54.5961C129.547 54.0601 128.376 53.6049 127.053 53.2307C125.74 52.8565 124.396 52.4519 123.033 52.0068C121.669 51.5719 120.336 51.0359 119.013 50.429C117.7 49.812 116.518 49.013 115.488 48.0218C114.458 47.0305 113.63 45.7966 113.003 44.3098C112.377 42.8229 112.064 40.9922 112.064 38.8176C112.064 37.0779 112.408 35.3888 113.105 33.7402C113.801 32.0915 114.801 30.6249 116.114 29.3505C117.427 28.0761 119.053 27.0546 120.993 26.2859C122.922 25.5172 125.144 25.1328 127.638 25.1328C130.446 25.1328 133.042 25.5677 135.405 26.4477C137.779 27.3276 139.799 28.5616 141.465 30.1395L139.264 34.3268L139.243 34.3369Z" fill="black"/>
<path d="M178.645 25.6562C181.827 25.6562 184.584 26.0305 186.907 26.7789C189.23 27.5274 191.159 28.5692 192.664 29.9144C194.179 31.2596 195.3 32.8577 196.037 34.7289C196.775 36.6001 197.138 38.6432 197.138 40.8582C197.138 43.0733 196.754 45.2782 195.987 47.2101C195.219 49.1419 194.068 50.7906 192.533 52.1763C190.997 53.5619 189.068 54.6341 186.755 55.4028C184.442 56.1715 181.736 56.5558 178.645 56.5558H172.03V73.3357H163.172V25.6562H178.645ZM178.645 49.6274C180.271 49.6274 181.685 49.4251 182.887 49.0206C184.099 48.616 185.099 48.0294 185.897 47.2708C186.695 46.5122 187.291 45.5918 187.695 44.4994C188.089 43.4071 188.291 42.1933 188.291 40.8582C188.291 39.5231 188.089 38.4308 187.695 37.3991C187.301 36.3674 186.705 35.4875 185.917 34.7592C185.129 34.031 184.129 33.4747 182.917 33.0904C181.705 32.706 180.281 32.5138 178.635 32.5138H172.019V49.6274H178.635H178.645Z" fill="black"/>
<path d="M225.997 32.7161V45.9357H242.652V52.7629H225.997V66.2454H247.137V73.3357H217.109V25.6562H247.137V32.7161H225.997Z" fill="black"/>
<path d="M308.926 73.3412H302.079C301.311 73.3412 300.685 73.149 300.2 72.7647C299.715 72.3803 299.352 71.9049 299.119 71.3284L295.564 61.5983H275.839L272.284 71.3284C272.112 71.8341 271.769 72.2994 271.264 72.7141C270.759 73.1288 270.132 73.3412 269.385 73.3412H262.477L281.212 25.6719H290.231L308.926 73.3412ZM293.292 55.3375L287.494 39.4781C287.211 38.7701 286.908 37.9407 286.605 36.9697C286.302 35.9987 285.989 34.9569 285.686 33.8342C285.404 34.9569 285.111 36.0088 284.798 36.9798C284.495 37.9609 284.192 38.8105 283.909 39.5388L278.152 55.3274H293.292V55.3375Z" fill="black"/>
<path d="M364.199 73.3357H356.2C354.685 73.3357 353.584 72.7389 352.907 71.5555L342.898 56.2928C342.525 55.7163 342.111 55.3117 341.666 55.069C341.222 54.8263 340.555 54.7049 339.676 54.7049H335.889V73.3357H327.031V25.6562H341.555C344.777 25.6562 347.554 25.99 349.867 26.6576C352.18 27.3251 354.079 28.2658 355.564 29.4795C357.048 30.6932 358.139 32.1295 358.836 33.8186C359.533 35.4976 359.887 37.3485 359.887 39.3714C359.887 40.9796 359.654 42.4968 359.18 43.9229C358.705 45.349 358.028 46.6437 357.139 47.817C356.251 48.9801 355.15 50.0017 353.847 50.8816C352.544 51.7616 351.049 52.4494 349.383 52.9551C349.958 53.2889 350.483 53.6732 350.968 54.1284C351.453 54.5835 351.887 55.1095 352.281 55.7264L364.199 73.3357ZM341.414 48.3429C343.08 48.3429 344.535 48.1305 345.777 47.7158C347.019 47.3011 348.039 46.7246 348.837 45.9862C349.635 45.2479 350.241 44.3781 350.635 43.3666C351.029 42.3552 351.231 41.2426 351.231 40.039C351.231 37.6216 350.433 35.7606 348.847 34.4659C347.251 33.1713 344.827 32.5239 341.555 32.5239H335.889V48.353H341.424L341.414 48.3429Z" fill="black"/>
<path d="M398.92 25.6562C402.041 25.6562 404.708 25.9496 406.92 26.5463C409.131 27.1431 410.949 27.9826 412.363 29.085C413.777 30.1875 414.818 31.5125 415.474 33.0701C416.131 34.6277 416.464 36.3877 416.464 38.3499C416.464 39.4726 416.302 40.5447 415.969 41.5662C415.636 42.5878 415.131 43.5487 414.434 44.4387C413.737 45.3288 412.868 46.138 411.798 46.8662C410.727 47.5944 409.465 48.2114 407.99 48.7171C414.525 50.1938 417.797 53.7238 417.797 59.3373C417.797 61.3602 417.413 63.2313 416.646 64.9407C415.878 66.65 414.757 68.1368 413.293 69.3708C411.818 70.6149 410.01 71.5859 407.859 72.2837C405.708 72.9918 403.253 73.3357 400.486 73.3357H382.508V25.6562H398.9H398.92ZM391.376 32.5138V46.2998H398.425C401.455 46.2998 403.738 45.7536 405.293 44.6511C406.839 43.5487 407.616 41.809 407.616 39.4119C407.616 37.0148 406.909 35.1638 405.506 34.1018C404.102 33.0499 401.91 32.5239 398.92 32.5239H391.376V32.5138ZM400.334 66.4073C401.981 66.4073 403.364 66.205 404.485 65.8105C405.607 65.4161 406.495 64.8901 407.172 64.2327C407.849 63.5752 408.323 62.8065 408.626 61.9266C408.919 61.0466 409.071 60.1161 409.071 59.1249C409.071 58.1337 408.909 57.1627 408.576 56.3434C408.243 55.514 407.728 54.8161 407.031 54.2295C406.324 53.6429 405.425 53.1978 404.314 52.8944C403.203 52.591 401.87 52.4291 400.314 52.4291H391.396V66.4073H400.355H400.334Z" fill="black"/>
<path d="M447.951 73.3357H439.062V25.6562H447.951V73.3255V73.3357Z" fill="black"/>
<path d="M505.007 32.9543H490.655V73.3412H481.797V32.9543H467.445V25.6719H505.007V32.9543Z" fill="black"/>
</g>
<defs>
<clipPath id="clip0_1903_3290">
<rect width="505" height="99" fill="white"/>
</clipPath>
</defs>
</svg>
