<?xml version="1.0" encoding="UTF-8"?>
<svg width="266px" height="55px" viewBox="0 0 266 55" version="1.1" xmlns="http://www.w3.org/2000/svg" xmlns:xlink="http://www.w3.org/1999/xlink">
    <style>
     :root {
        --color-text: #232020;
        --color-icon: #232020;
    }

    @media (prefers-color-scheme: dark) {
        :root {
            --color-text: #FFFFFF;
            --color-icon: #F3F5F9;
        }
    }
    </style>
    <g id="Page-1" stroke="none" stroke-width="1" fill="var(--color-text)" fill-rule="evenodd">
        <g id="Group">
            <path d="M53.1118,31.9 C53.3318,34.54 54.1678,36.784 55.7958,39.204 C57.5118,41.536 60.7678,43.12 65.1238,43.12 C68.4678,43.12 71.1518,42.24 73.1318,40.524 C75.1558,38.764 76.1678,36.476 76.1678,33.66 C75.9918,30.624 75.3758,28.644 73.6158,27.192 C72.3838,26.136 71.8998,25.696 70.1398,24.992 C69.2598,24.64 68.6438,24.42 68.2478,24.288 L66.3118,23.672 C65.3878,23.364 64.6398,23.144 64.1558,23.012 C63.6718,22.88 63.0998,22.66 62.4398,22.352 C60.5478,21.516 59.8438,20.724 59.6678,19.14 C59.6678,17.204 61.6038,15.62 64.7718,15.62 C67.8958,15.62 69.9198,17.072 70.7998,20.02 L75.2878,19.096 C74.0118,13.948 70.0958,11 64.7718,11 C61.6918,11 59.2718,11.792 57.5118,13.42 C55.7958,15.004 54.9158,16.896 54.9158,19.14 C54.9158,21.692 55.7518,23.628 57.4678,24.904 C59.1838,26.18 61.6918,27.28 64.9478,28.116 C69.5678,29.304 71.3278,30.8 71.3278,33.66 C71.3278,36.872 68.7758,38.5 65.1238,38.5 C61.3398,38.368 59.5358,36.916 58.6118,34.804 C57.9518,33.22 57.8638,32.472 57.6878,31.108 L53.1118,31.9 Z" id="Path" fill-rule="nonzero"></path>
            <path d="M87.261,42.46 L87.261,30.58 L93.729,30.58 C96.413,30.58 98.657,29.656 100.417,27.852 C102.221,26.004 103.101,23.76 103.101,21.076 C103.101,18.48 102.177,16.236 100.329,14.432 C98.525,12.584 96.325,11.66 93.729,11.66 L82.421,11.66 L82.421,42.46 L87.261,42.46 Z M87.261,16.28 L93.729,16.28 C96.193,16.28 98.261,18.04 98.261,21.076 C98.261,23.76 96.369,25.96 93.729,25.96 L87.261,25.96 L87.261,16.28 Z" id="Shape" fill-rule="nonzero"></path>
            <polygon id="Path"  fill-rule="nonzero" points="129.286 42.46 129.286 37.84 115.074 37.84 115.074 28.556 128.01 28.556 128.01 23.936 115.074 23.936 115.074 16.28 129.286 16.28 129.286 11.66 110.234 11.66 110.234 42.46"></polygon>
            <path d="M138.575,42.46 L140.819,35.64 L152.127,35.64 L154.327,42.46 L159.299,42.46 L148.607,11.66 L144.383,11.66 L133.691,42.46 L138.575,42.46 Z M146.451,18.568 L150.763,31.504 L142.227,31.504 L146.451,18.568 Z" id="Shape" fill-rule="nonzero"></path>
            <path d="M169.248,42.46 L169.248,29.788 L173.648,29.788 L179.676,42.46 L184.912,42.46 L178.576,29.084 L179.148,28.82 C180.512,28.248 183.988,25.652 183.988,20.724 C183.988,18.172 183.064,16.016 181.26,14.3 C179.456,12.54 177.344,11.66 174.836,11.66 L164.408,11.66 L164.408,42.46 L169.248,42.46 Z M169.248,16.28 L174.836,16.28 C177.168,16.28 179.148,17.996 179.148,20.812 C179.148,24.596 176.112,25.168 174.836,25.168 L169.248,25.168 L169.248,16.28 Z" id="Shape" fill-rule="nonzero"></path>
            <path d="M203.178,42.46 C205.774,42.46 207.974,41.668 209.778,40.04 C211.582,38.324 212.506,35.992 212.506,33.132 C212.418,30.228 211.318,28.248 210.13,27.104 C209.294,26.224 209.074,26.092 208.898,25.96 L209.514,25.344 C210.35,24.508 211.362,22.396 211.362,20.152 C211.362,17.732 210.526,15.752 208.898,14.124 C207.27,12.496 205.246,11.66 202.826,11.66 L190.462,11.66 L190.462,42.46 L203.178,42.46 Z M195.302,16.28 L202.826,16.28 C204.762,16.28 206.522,17.644 206.522,20.152 C206.522,23.496 204.014,23.936 202.826,23.936 L195.302,23.936 L195.302,16.28 Z M195.302,28.556 L203.178,28.556 C205.642,28.556 207.666,30.184 207.666,33.132 C207.666,37.268 204.586,37.84 203.178,37.84 L195.302,37.84 L195.302,28.556 Z" id="Shape" fill-rule="nonzero"></path>
            <polygon id="Path" fill-rule="nonzero" points="237.107 42.46 237.107 37.84 229.847 37.84 229.847 16.28 237.107 16.28 237.107 11.66 217.791 11.66 217.791 16.28 225.007 16.28 225.007 37.84 217.791 37.84 217.791 42.46"></polygon>
            <polygon id="Path" fill-rule="nonzero" points="256.296 42.46 256.296 16.28 265.712 16.28 265.712 11.66 242.04 11.66 242.04 16.28 251.456 16.28 251.456 42.46"></polygon>
            <path d="M32.058,39.697 C30.7805,39.6117 29.4988,39.6112 28.2214,39.6955 C28.1425,39.7007 28.0637,39.7063 27.9849,39.7121 C22.445,40.1368 18.0199,42.2085 14.9752,45.7649 L5.69018,41.1163 C6.7121,36.548 5.71918,31.7643 2.73718,27.0747 C2.69442,27.0078 2.6514,26.9411 2.6081,26.8745 C1.91007,25.8018 1.14167,24.7765 0.30792,23.8053 L32.0727,8.33654e-06 L32.058,39.697 Z M27.069,9.99816 L27.0598,34.7731 C22.1092,35.2396 17.6597,36.864 14.0703,39.7202 L11.0713,38.2187 C11.2065,33.6338 9.8404,29.0981 7.2451,24.8546 L27.069,9.99816 Z" id="Shape" fill="var(--color-icon)"></path>
            <polygon id="Path" fill="var(--color-icon)" fill-rule="nonzero" points="3.37158 46.7684 11.8397 51.0089 9.8488 54.9845 1.38072 50.744"></polygon>
        </g>
    </g>
</svg>
